<?xml version="1.0" encoding="UTF-8"?>
<svg width="80" height="80" id="Layer_1" data-name="Layer 1" xmlns="http://www.w3.org/2000/svg" viewBox="0 0 29.74 24.36">
  <path d="m12.88.02c-.08,0-1.37.03-2.85.06-1.48.03-3.09.06-3.57.08-.86.03-.88.03-1.1.15-.41.23-.28-.14-1.8,4.78-.52,1.68-.84,2.69-.95,3.01-.06.19-.04.32.08.45.06.06.05.09-.16.29-.22.23-.23.23-.47,1.05-.14.46-.47,1.49-.74,2.29-.26.8-.48,1.48-.48,1.51s-.17.6-.38,1.28C.01,16.47-.02,16.62,0,16.76c.02.06.32.39.75.79.56.53.76.69.89.73.12.03.69.03,1.95,0,.98-.03,2.78-.06,4.01-.09,2.67-.05,2.81-.06,3.04-.17.35-.17.41-.28.8-1.5.58-1.79.58-1.74-.1-2.4-.25-.24-.58-.55-.74-.69-.26-.23-.3-.25-.49-.25-.3,0-.58.16-.88.49-.22.26-.35.34-.61.42-.27.09.05-.54.5-1,.38-.39.76-.59,1.13-.63l.25-.02.36.33c.2.18.4.37.46.41.34.31,1,.05,1.28-.51.16-.31.81-2.41.81-2.6,0-.08-.03-.2-.08-.28l-.08-.13.16-.11c.09-.06.2-.19.24-.28.11-.22.78-2.41.81-2.63.03-.33-.03-.43-.75-1.11-.37-.35-.71-.66-.76-.68-.29-.15-.72.02-1.12.45-.2.22-.33.32-.48.37-.11.04-.21.06-.23.05-.01-.02.01-.12.06-.24.26-.62.88-1.19,1.46-1.35.4-.11.42-.1.89.34.48.46.64.54.94.45.27-.08.55-.3.68-.54.14-.27.84-2.53.84-2.73,0-.15-.05-.2-.7-.85-.39-.38-.77-.72-.85-.76-.11-.04-.32-.06-.8-.05-.36,0-.72.01-.8.02Zm1.51.29c.17.11.14.31-.29,1.61-.37,1.13-.4,1.2-.57,1.37-.09.1-.25.2-.34.23-.14.05-.17.04-.26-.03-.06-.05-.15-.19-.2-.33-.18-.49-.53-.62-1.24-.47-.45.09-.87.32-1.19.64-.48.48-.71.95-.71,1.46,0,.38.1.66.32.88.26.27.48.34.99.31.61-.03.7-.08,1.1-.48.19-.19.4-.37.46-.4.31-.11.5,0,.5.27,0,.17-.17.76-.57,2.05-.2.63-.29.77-.55.87-.08.03-.7.06-1.57.09-1.5.04-1.69.06-2.04.25-.09.05-.23.14-.3.22-.11.11-.13.17-.13.34,0,.23.1.38.37.51.26.13.33.23.33.43,0,.42-.44.97-.99,1.24-.44.21-.8.3-1.25.3-.48,0-.77-.11-1-.4-.14-.17-.15-.2-.15-.48,0-.49.23-.77.79-1,.27-.11.38-.18.53-.35.16-.18.19-.24.19-.38,0-.21-.13-.4-.34-.49-.13-.06-.36-.07-1.74-.06h-1.58s-.07-.1-.07-.1c-.07-.11-.07-.12.03-.46.41-1.3,1.54-4.94,1.78-5.75.45-1.46.49-1.56.78-1.68.18-.08.4-.09,3.45-.15.7-.02,1.82-.04,2.49-.06,2.61-.06,2.85-.06,2.96.02Zm-2.56,8.41c.09.13.09.27-.04.63-.06.17-.17.55-.26.84-.25.86-.39,1.22-.57,1.42-.36.41-.65.41-.81,0-.05-.13-.09-.25-.09-.27,0-.06-.24-.25-.38-.3-.2-.06-.54-.06-.83.02-.74.19-1.35.68-1.68,1.36-.18.36-.19.4-.19.74,0,.3.02.4.1.57.12.25.38.48.64.56.37.13,1.07.06,1.36-.13.06-.04.23-.2.38-.36.4-.43.8-.54.88-.23.05.19-.01.46-.34,1.53-.17.56-.31,1.04-.31,1.07s-.06.12-.12.22c-.22.3-.27.31-2.13.35-4.26.1-5.57.13-6.25.13s-.75,0-.84-.09c-.06-.05-.1-.12-.1-.16s.11-.44.26-.9.29-.95.34-1.1.23-.73.4-1.28c.17-.55.36-1.15.41-1.34.1-.34.23-.74.7-2.16.13-.4.27-.76.31-.8.04-.04.15-.12.24-.17.16-.08.27-.09,1.64-.11,1.28-.02,1.49-.01,1.63.05.19.08.23.16.16.32-.06.16-.28.31-.64.46-.48.19-.78.56-.85,1.03-.05.37.02.57.27.83.18.19.27.24.58.34.59.2,1.19.14,1.85-.16,1.15-.53,1.66-1.73.88-2.09-.23-.11-.35-.23-.35-.35,0-.14.24-.37.45-.43.23-.07.97-.11,2.2-.12,1.04,0,1.05,0,1.11.09Z"/>
  <path d="m25.24,6.16c-.7.02-2.3.05-3.55.08-1.25.03-2.35.07-2.43.09-.23.06-.5.28-.61.51-.05.11-.24.66-.42,1.23s-.37,1.14-.43,1.26c-.09.2-.35.48-.43.48-.02,0-.22-.17-.44-.38-.48-.43-.65-.5-1.12-.46-.54.06-.95.25-1.38.65-.63.58-.89,1.29-.7,1.93.06.21.12.28.75.9.99.97,1.16,1.07,1.75,1.04.17,0,.32,0,.32,0s-.06.18-.13.38c-.15.43-.16.53-.04.71l.09.14-.19.21c-.16.17-.2.28-.37.79-.48,1.56-.57,1.8-.69,2.01-.08.13-.2.26-.27.31l-.13.08-.4-.38c-.23-.21-.46-.4-.53-.43-.07-.03-.26-.04-.43-.04-.58,0-1.26.31-1.66.75-.6.66-.8,1.48-.48,2.02.15.26,1.48,1.52,1.73,1.63.12.06.3.09.59.1l.4.02-.12.42c-.09.29-.11.47-.1.57.02.11.16.27.74.8.39.36.75.68.81.71.12.07.56.06,4.45-.02,4.22-.09,4.37-.09,4.62-.2.11-.05.26-.15.33-.23.13-.15.15-.2.98-2.85.19-.61.45-1.43.57-1.83.88-2.79.92-2.93.9-3.12-.01-.1-.05-.21-.09-.25-.06-.06-.05-.09.12-.27.22-.23.12.05,1.55-4.59.19-.62.47-1.52.63-2s.28-.97.3-1.1l.03-.23-.73-.71c-.4-.4-.78-.74-.84-.76-.12-.05-.98-.05-2.93,0Zm2.87.28c.14.1.11.26-.31,1.61-.2.65-.48,1.56-.63,2.02-.14.46-.37,1.21-.52,1.68-.39,1.22-.61,1.93-.66,2.14-.03.11-.11.25-.21.35-.2.2-.2.2-1.89.23-1.31.03-1.51.05-1.85.23-.28.14-.43.34-.43.57,0,.18.06.25.4.48.28.18.34.35.26.65-.09.31-.29.58-.61.82-.43.32-.73.43-1.3.46-.54.03-.8-.03-1.14-.26-.36-.24-.42-.54-.19-1.03.13-.28.16-.31.37-.4.13-.06.31-.14.4-.18.27-.12.52-.4.55-.6.04-.21-.05-.35-.32-.5l-.19-.11h-1.57c-.86,0-1.6-.02-1.62-.03-.13-.08-.05-.43.4-1.79.13-.4.25-.81.26-.92.06-.53-.28-.83-.78-.68-.15.05-.28.14-.57.41-.48.46-.57.5-1,.51-.43,0-.7-.12-.89-.4-.12-.17-.13-.21-.13-.55,0-.33.02-.4.14-.65.28-.55.8-1.01,1.35-1.18.32-.1.68-.11.88-.03.12.05.16.1.21.29.08.28.16.39.34.48.31.15.65.04.97-.31.23-.25.31-.45.74-1.85.16-.51.32-.99.37-1.05.05-.06.17-.15.27-.2.18-.09.3-.09,3.62-.17,4.67-.11,5.16-.11,5.29-.02Zm-2.55,8.28c.2.1.2.24.03.77-.13.4-.51,1.63-.84,2.73-.28.93-1.28,4.12-1.31,4.18-.07.13-.28.31-.43.35-.08.02-2.06.08-4.41.13-4.61.1-4.45.11-4.51-.12-.03-.11-.03-.14.41-1.54.27-.87.31-1.02.29-1.24-.03-.43-.31-.61-.74-.48-.2.06-.3.13-.59.4-.43.41-.62.51-1.02.51-.36,0-.58-.09-.77-.31-.18-.21-.24-.41-.22-.75.06-.88,1.1-1.82,2.01-1.83.37,0,.49.09.59.42.09.31.2.41.45.47.37.09.8-.19,1.04-.65.06-.12.27-.73.48-1.36.2-.63.4-1.19.44-1.24.04-.06.15-.14.26-.19.18-.09.26-.09,1.53-.12,1.35-.03,1.67,0,1.86.11.08.05.09.09.07.18-.05.2-.23.34-.64.5-.44.17-.57.28-.71.56-.23.45-.25.78-.08,1.11.49.95,2.3.9,3.33-.09.31-.31.49-.63.53-.95.02-.2,0-.25-.09-.4-.06-.09-.19-.21-.29-.26-.25-.13-.33-.2-.33-.34s.22-.37.36-.4c.37-.09.78-.12,1.68-.14.57-.02,1.15-.03,1.28-.04s.28.02.34.05Z"/>
</svg>